<?xml version="1.0" encoding="UTF-8"?>
<svg xmlns="http://www.w3.org/2000/svg" xmlns:xlink="http://www.w3.org/1999/xlink" height="120.0" preserveAspectRatio="xMidYMid meet" version="1.0" viewBox="0 0 120 120" width="120.0" zoomAndPan="magnify" fill="white">
  <g id="change1_1">
    <path d="M64,4C30.916,4,4,30.916,4,64s26.916,60,60,60s60-26.916,60-60S97.084,4,64,4z M64,116 c-28.673,0-52-23.327-52-52s23.327-52,52-52s52,23.327,52,52S92.673,116,64,116z"/>
    <path d="M75.836,37.307c-1.562-1.561-4.094-1.561-5.657,0L46.314,61.171c-0.75,0.75-1.171,1.768-1.171,2.829 c0,1.061,0.421,2.078,1.171,2.828l23.865,23.865c0.781,0.781,1.805,1.172,2.829,1.172s2.047-0.391,2.829-1.172 c1.562-1.562,1.562-4.095,0-5.656L54.799,64l21.037-21.036C77.398,41.402,77.398,38.869,75.836,37.307z"/>
  </g>
</svg>
